<?xml version="1.0" encoding="UTF-8"?><svg xmlns="http://www.w3.org/2000/svg" viewBox="0 0 202 95.27"><defs><style>.d{fill:#fff;}</style></defs><g id="a"/><g id="b"><g id="c"><g><path class="d" d="M196.29,33.48c-2-2.86-4.81-5.05-7.76-6.91-12.11-7.65-30.85-5.33-35.85-6.33-3.99-.8-24.5-14.5-28.5-15.5-14.17-3.54-20.72-3.09-35,0-3.4,.74-10.5,3.5-17.93,6.15-3.48,1.24-9.16,2.94-12.57,4.35-7.13,2.94-12.85,3.24-20.4,4.95-8.89,2.01-17.94,4.53-25.18,10.06S.76,44.99,2.5,53.93c1.44,7.38,7.18,13.27,13.65,17.11,14.54,8.64,28.02,6.27,44.03,11.7,6.36,2.16,16.92,7.6,23.46,9.1,23.9,5.5,47.26-9.85,71.51-13.54,8.33-1.27,17-1.19,24.81-4.34,9.59-3.87,17.02-12.7,19.17-22.81,1.28-6,.67-12.64-2.84-17.68Z"/><path d="M198.23,32.34c-9.24-12.89-26.15-13.77-40.56-14.03-1.11-.02-2.22-.04-3.32-.12-.23-.02-.45-.04-.68-.06-.57-.05,.11,.04-.14-.01-.28-.06-.55-.12-.82-.21-.13-.04-.27-.1-.4-.15-.51-.18,.34,.16-.05-.02-.44-.2-.87-.4-1.3-.62-.99-.5-1.96-1.03-2.93-1.56-4.98-2.77-9.82-5.79-14.74-8.66-1.99-1.16-3.99-2.33-6.07-3.33-2.65-1.28-5.55-1.79-8.42-2.34C114.94,.48,111.01-.01,107.07,0s-7.94,.54-11.85,1.24-7.5,1.44-11.14,2.66c-4.35,1.46-8.64,3.11-12.96,4.65-3.7,1.32-7.47,2.43-11.16,3.79-4.08,1.5-8.03,2.9-12.31,3.74C31.26,19.32,11.12,22.6,2.74,39.16c-3.77,7.46-3.79,16.09,.82,23.2,4.68,7.22,12.44,11.97,20.41,14.8s16.25,3.42,24.42,4.93c4.26,.79,8.5,1.81,12.56,3.32,3.42,1.28,6.74,2.8,10.09,4.23s6.94,2.98,10.56,4.02c3.98,1.14,8.22,1.6,12.35,1.63,8.81,.06,17.51-2.03,25.89-4.58s17.1-5.8,25.84-8.1c4.29-1.12,8.63-2,13.03-2.52,4.69-.55,9.42-.88,14.07-1.76,8.27-1.55,15.82-5.44,21.24-11.97,5.12-6.16,8.32-14.12,7.92-22.2-.21-4.18-1.36-8.32-3.73-11.81-1.62-2.38-5.52-.13-3.89,2.27,4.33,6.35,3.86,14.91,.76,21.69s-8.3,12.07-14.93,15.13c-8.08,3.73-17.43,3.4-26.05,4.76-8.54,1.35-16.78,4.06-24.96,6.76-15.04,4.97-31.88,11.06-47.71,5.93-6.85-2.22-13.22-5.66-20-8.08-7.83-2.8-16.08-3.67-24.23-5.05s-15.95-3.63-22.69-8.45c-6-4.29-10.67-10.83-10.08-18.49s5.88-14.21,12.03-18.22c7.1-4.63,15.54-6.81,23.75-8.54,4.12-.87,8.3-1.44,12.39-2.47s7.58-2.62,11.39-3.91,7.68-2.56,11.49-3.94,7.74-2.9,11.68-4.12c3.63-1.13,7.45-1.78,11.2-2.37,3.5-.56,7.05-.84,10.59-.71,3.84,.14,7.63,.78,11.37,1.62,1.34,.3,2.7,.57,4,1.03-.64-.23,.27,.13,.51,.24,.43,.21,.85,.42,1.27,.64,4.65,2.43,9.11,5.24,13.62,7.92,2.25,1.33,4.51,2.67,6.81,3.92,1.61,.88,3.28,1.84,5.04,2.39s3.67,.47,5.45,.51c2.85,.06,5.71,.08,8.56,.22,6.76,.34,13.87,1.23,19.94,4.43,3.3,1.74,6.59,4.1,8.78,7.16,.71,.99,1.96,1.46,3.08,.81,.97-.57,1.52-2.09,.81-3.08Z"/></g></g></g></svg>